<svg width="16" height="16" viewBox="0 0 16 16" fill="none" xmlns="http://www.w3.org/2000/svg">
<path d="M13 13.12C11.64 14.48 9.92667 15.16 7.86 15.16C5.79333 15.16 4.08 14.48 2.72 13.12C1.37333 11.76 0.7 10.0533 0.7 8C0.7 5.94667 1.37333 4.24 2.72 2.88C4.08 1.52 5.79333 0.84 7.86 0.84C9.92667 0.84 11.64 1.52 13 2.88C14.36 4.24 15.04 5.94667 15.04 8C15.04 10.0533 14.36 11.76 13 13.12ZM3.74 12.16C4.83333 13.2533 6.20667 13.8 7.86 13.8C9.51333 13.8 10.8867 13.2533 11.98 12.16C13.0733 11.0533 13.62 9.66667 13.62 8C13.62 6.33333 13.0733 4.95333 11.98 3.86C10.8867 2.75333 9.51333 2.2 7.86 2.2C6.20667 2.2 4.83333 2.75333 3.74 3.86C2.66 4.95333 2.12 6.33333 2.12 8C2.12 9.66667 2.66 11.0533 3.74 12.16ZM7.98 11.78C6.83333 11.78 5.90667 11.4267 5.2 10.72C4.50667 10.0133 4.16 9.08667 4.16 7.94C4.16 6.78 4.51333 5.84667 5.22 5.14C5.92667 4.42 6.84667 4.06 7.98 4.06C8.9 4.06 9.67333 4.3 10.3 4.78C10.9267 5.26 11.2933 5.9 11.4 6.7L9.76 7.04C9.69333 6.56 9.5 6.18667 9.18 5.92C8.86 5.64 8.45333 5.5 7.96 5.5C7.30667 5.5 6.78667 5.72 6.4 6.16C6.01333 6.6 5.82 7.19333 5.82 7.94C5.82 8.68667 6.01333 9.28 6.4 9.72C6.78667 10.1467 7.30667 10.36 7.96 10.36C8.44 10.36 8.83333 10.2333 9.14 9.98C9.46 9.72667 9.66 9.37333 9.74 8.92L11.38 9.28C11.1933 10.0667 10.8 10.68 10.2 11.12C9.61333 11.56 8.87333 11.78 7.98 11.78Z" fill="white"/>
</svg>
